<svg xmlns="http://www.w3.org/2000/svg" width="532" height="675" viewBox="0 0 532 675">
  <rect width="100%" height="100%" fill="white"/>
  <g transform="translate(134,20)">
    <rect x="2" y="2" width="273" height="68" fill="#e8f0fe" stroke="#333" stroke-width="2"/>
    <text x="138.5" y="36" text-anchor="middle" dominant-baseline="central" font-family="-apple-system, BlinkMacSystemFont, sans-serif" font-size="14" fill="#333">Laravel Application</text>
  </g>
  <g transform="translate(216,278)">
    <circle cx="40" cy="14" r="12" fill="#e8f0fe" stroke="#333" stroke-width="2"/><line x1="40" y1="26" x2="40" y2="78" stroke="#333" stroke-width="2"/><line x1="8" y1="41.6" x2="72" y2="41.6" stroke="#333" stroke-width="2"/><line x1="40" y1="78" x2="16" y2="118" stroke="#333" stroke-width="2"/><line x1="40" y1="78" x2="64" y2="118" stroke="#333" stroke-width="2"/>
    <text x="40" y="60" text-anchor="middle" dominant-baseline="central" font-family="-apple-system, BlinkMacSystemFont, sans-serif" font-size="14" fill="#333">user</text>
  </g>
  <g transform="translate(20,575)">
    <rect x="2" y="2" width="116" height="76" rx="16" ry="16" fill="#e8f0fe" stroke="#333" stroke-width="2"/>
    <text x="60" y="40" text-anchor="middle" dominant-baseline="central" font-family="-apple-system, BlinkMacSystemFont, sans-serif" font-size="14" fill="#333">Display: You are not logged in</text>
  </g>
  <g transform="translate(392,568)">
    <rect x="2" y="2" width="116" height="76" rx="16" ry="16" fill="#e8f0fe" stroke="#333" stroke-width="2"/>
    <text x="60" y="40" text-anchor="middle" dominant-baseline="central" font-family="-apple-system, BlinkMacSystemFont, sans-serif" font-size="14" fill="#333">Display: You are logged in</text>
  </g>
  <g transform="translate(198,472)">
    <polygon points="60,2 118,40 60,78 2,40" fill="#e8f0fe" stroke="#333" stroke-width="2"/>
    <text x="60" y="40" text-anchor="middle" dominant-baseline="central" font-family="-apple-system, BlinkMacSystemFont, sans-serif" font-size="14" fill="#333">Logged In</text>
  </g>
  <g transform="translate(306,500)">
    <polyline points="12,12 146,12 146,54" fill="none" stroke="#333" stroke-width="2.5"></polyline><polygon points="146,68 140,54 152,54" fill="#333"></polygon>
  </g>
  <g transform="translate(68,500)">
    <polyline points="130,12 12,12 12,61" fill="none" stroke="#333" stroke-width="2.5"></polyline><polygon points="12,75 6,61 18,61" fill="#333"></polygon>
  </g>
  <g transform="translate(335,459)">
    <rect x="2" y="2" width="101" height="38" fill="#fff" stroke="#999" stroke-width="1" stroke-dasharray="4,2"/>
    <text x="52.5" y="21" text-anchor="middle" dominant-baseline="central" font-family="-apple-system, BlinkMacSystemFont, sans-serif" font-size="14" fill="#333">Yes</text>
  </g>
  <g transform="translate(89,459)">
    <rect x="2" y="2" width="91" height="33" fill="#fff" stroke="#999" stroke-width="1" stroke-dasharray="4,2"/>
    <text x="47.5" y="18.5" text-anchor="middle" dominant-baseline="central" font-family="-apple-system, BlinkMacSystemFont, sans-serif" font-size="14" fill="#333">No</text>
  </g>
  <g transform="translate(201,165)">
    <rect x="2" y="2" width="116" height="76" fill="#e8f0fe" stroke="#333" stroke-width="2"/>
    <text x="60" y="40" text-anchor="middle" dominant-baseline="central" font-family="-apple-system, BlinkMacSystemFont, sans-serif" font-size="14" fill="#333">Index Controller</text>
  </g>
</svg>